<svg width="25" height="24" viewBox="0 0 25 24" fill="none" xmlns="http://www.w3.org/2000/svg">
<g clip-path="url(#clip0_599_15392)">
<path d="M22.8458 1.52115C22.6682 1.47894 22.4815 1.50173 22.3193 1.58537L21.1667 2.161L20.0042 1.57975C19.9001 1.52768 19.7852 1.50058 19.6688 1.50058C19.5524 1.50058 19.4375 1.52768 19.3334 1.57975L18.1564 2.16147L16.9948 1.57975C16.8904 1.5273 16.7751 1.49999 16.6582 1.49999C16.5414 1.49999 16.4261 1.5273 16.3217 1.57975L15.1667 2.15959L14.0206 1.58115C13.9164 1.52835 13.8014 1.50059 13.6846 1.50011C13.5678 1.49962 13.4525 1.52641 13.3479 1.57834L12.1667 2.16193L11.0042 1.57928C10.8999 1.52724 10.7849 1.50015 10.6683 1.50015C10.5518 1.50015 10.4368 1.52724 10.3325 1.57928L9.16669 2.161L8.00231 1.57928C7.8522 1.50403 7.68119 1.48134 7.51665 1.51482C7.35211 1.54831 7.20357 1.63604 7.09481 1.76397C6.97759 1.90368 6.91438 2.08082 6.91669 2.26318V13.5001L6.91903 13.5024H15.9167C16.3145 13.5024 16.696 13.6604 16.9773 13.9417C17.2587 14.223 17.4167 14.6046 17.4167 15.0024V19.8751C17.4167 21.3249 18.9668 22.5001 20.4167 22.5001H20.9792C21.6257 22.5001 22.2456 22.2433 22.7028 21.7861C23.1599 21.329 23.4167 20.709 23.4167 20.0626V2.25006C23.4168 2.08219 23.3606 1.91914 23.2571 1.78699C23.1536 1.65484 23.0088 1.56123 22.8458 1.52115ZM19.6667 11.2501H13.6901C13.2851 11.2501 12.9354 10.9388 12.9176 10.5338C12.9131 10.4326 12.9291 10.3315 12.9646 10.2366C13.0002 10.1418 13.0547 10.0551 13.1247 9.98186C13.1947 9.90862 13.2788 9.85032 13.372 9.81048C13.4651 9.77064 13.5654 9.75008 13.6667 9.75006H19.6432C20.0483 9.75006 20.3979 10.0613 20.4158 10.4663C20.4203 10.5675 20.4043 10.6686 20.3687 10.7635C20.3331 10.8583 20.2787 10.945 20.2087 11.0183C20.1387 11.0915 20.0546 11.1498 19.9614 11.1896C19.8683 11.2295 19.768 11.25 19.6667 11.2501ZM19.6667 7.50006H10.6901C10.2851 7.50006 9.93544 7.18881 9.91762 6.78381C9.91307 6.68259 9.92906 6.5815 9.96465 6.48664C10.0002 6.39178 10.0547 6.30511 10.1247 6.23186C10.1947 6.15862 10.2788 6.10032 10.3719 6.06048C10.4651 6.02064 10.5654 6.00008 10.6667 6.00006H19.6432C20.0483 6.00006 20.3979 6.31131 20.4158 6.71631C20.4203 6.81752 20.4043 6.91861 20.3687 7.01348C20.3331 7.10834 20.2787 7.19501 20.2087 7.26826C20.1387 7.3415 20.0546 7.3998 19.9614 7.43964C19.8683 7.47948 19.768 7.50004 19.6667 7.50006Z" fill="#21BAB5"/>
<path d="M15.9167 19.875V15.75C15.9167 15.5511 15.8377 15.3603 15.697 15.2197C15.5564 15.079 15.3656 15 15.1667 15H2.41669C2.01884 15.0012 1.63767 15.16 1.35657 15.4415C1.07546 15.7231 0.917305 16.1045 0.916687 16.5023C0.916687 18.8719 1.18762 19.8572 1.5945 20.6072C2.28497 21.8808 3.53512 22.5 5.41669 22.5H16.9329C16.9699 22.5 17.0061 22.4891 17.0369 22.4686C17.0677 22.4481 17.0918 22.419 17.1061 22.3849C17.1203 22.3508 17.1242 22.3132 17.1172 22.2769C17.1101 22.2405 17.0925 22.2071 17.0665 22.1808C16.6231 21.7359 15.9167 21.1406 15.9167 19.875Z" fill="#21BAB5"/>
</g>
<defs>
<clipPath id="clip0_599_15392">
<rect width="24" height="24" fill="white" transform="translate(0.166687)"/>
</clipPath>
</defs>
</svg>
