<svg width="25" height="24" viewBox="0 0 25 24" fill="none" xmlns="http://www.w3.org/2000/svg">
<path d="M17.75 2.25H17.2152C17.1398 2.24992 17.0663 2.22717 17.0041 2.18469C16.9419 2.14222 16.8939 2.082 16.8664 2.01187C16.7223 1.64056 16.4694 1.32142 16.1409 1.09626C15.8123 0.871092 15.4235 0.750404 15.0252 0.75H9.97484C9.57655 0.750404 9.18766 0.871092 8.85912 1.09626C8.53057 1.32142 8.27769 1.64056 8.13359 2.01187C8.1061 2.082 8.05813 2.14222 7.99592 2.18469C7.93372 2.22717 7.86017 2.24992 7.78484 2.25H7.25C6.45435 2.25 5.69129 2.56607 5.12868 3.12868C4.56607 3.69129 4.25 4.45435 4.25 5.25V20.25C4.25 21.0456 4.56607 21.8087 5.12868 22.3713C5.69129 22.9339 6.45435 23.25 7.25 23.25H17.75C18.5456 23.25 19.3087 22.9339 19.8713 22.3713C20.4339 21.8087 20.75 21.0456 20.75 20.25V5.25C20.75 4.45435 20.4339 3.69129 19.8713 3.12868C19.3087 2.56607 18.5456 2.25 17.75 2.25ZM15.4939 5.25H9.50609C9.30718 5.25 9.11642 5.17098 8.97576 5.03033C8.83511 4.88968 8.75609 4.69891 8.75609 4.5C8.75609 4.30109 8.83511 4.11032 8.97576 3.96967C9.11642 3.82902 9.30718 3.75 9.50609 3.75H15.4939C15.6928 3.75 15.8836 3.82902 16.0242 3.96967C16.1649 4.11032 16.2439 4.30109 16.2439 4.5C16.2439 4.69891 16.1649 4.88968 16.0242 5.03033C15.8836 5.17098 15.6928 5.25 15.4939 5.25Z" fill="#21BAB5"/>
</svg>
