<svg width="24" height="25" viewBox="0 0 24 25" fill="none" xmlns="http://www.w3.org/2000/svg">
<path d="M5.41406 14.0815L5.41406 14.0817C5.41592 14.3447 5.36575 14.6055 5.26644 14.8491C5.16713 15.0926 5.02064 15.3141 4.83539 15.5009C4.50239 15.8367 4.0789 16.0234 3.64266 16.0234H2.34375C2.12619 16.0234 1.91754 16.1098 1.7637 16.2637C1.60986 16.4175 1.52344 16.6262 1.52344 16.8437V20.1428C1.52344 20.8281 1.79565 21.4852 2.2802 21.9698C2.52012 22.2097 2.80495 22.4 3.11843 22.5299C3.4319 22.6597 3.76788 22.7265 4.10719 22.7265H7.40625C7.62381 22.7265 7.83246 22.6401 7.9863 22.4863C8.14014 22.3324 8.22656 22.1238 8.22656 21.9062V20.9251C8.22656 19.8928 9.08196 19.0008 10.0963 18.977M5.41406 14.0815L10.0969 19.0005M5.41406 14.0815C5.39983 13.0763 4.57274 12.2265 3.60516 12.2265H2.34375C2.12619 12.2265 1.91754 12.1401 1.7637 11.9863C1.60986 11.8324 1.52344 11.6238 1.52344 11.4062V8.10717C1.52344 7.76787 1.59027 7.43189 1.72011 7.11841C1.84996 6.80494 2.04028 6.52011 2.2802 6.28019C2.76475 5.79564 3.42193 5.52342 4.10719 5.52342H6.69656C6.80223 5.52342 6.90358 5.48144 6.9783 5.40672C7.05302 5.332 7.095 5.23066 7.095 5.12498V4.82123C7.095 4.41643 7.17563 4.01567 7.33218 3.64236C7.48873 3.26905 7.71807 2.93066 8.00682 2.64694C8.29556 2.36322 8.63792 2.13985 9.01392 1.98988C9.38992 1.8399 9.79203 1.76631 10.1968 1.77342C11.8473 1.80225 13.1906 3.18655 13.1906 4.8592V5.12498C13.1906 5.23066 13.2326 5.332 13.3073 5.40672C13.382 5.48144 13.4834 5.52342 13.5891 5.52342H16.1784C16.5131 5.52342 16.8444 5.58933 17.1536 5.71739C17.4627 5.84544 17.7436 6.03314 17.9802 6.26975C18.2169 6.50637 18.4045 6.78727 18.5326 7.09642C18.6607 7.40557 18.7266 7.73692 18.7266 8.07155V10.6609C18.7266 10.7666 18.7685 10.8679 18.8433 10.9427C18.918 11.0174 19.0193 11.0594 19.125 11.0594H19.3903C21.0926 11.0594 22.4766 12.4088 22.4766 14.0659C22.4766 15.7694 21.1091 17.155 19.4288 17.155H19.125C19.0193 17.155 18.918 17.197 18.8433 17.2717C18.7685 17.3464 18.7266 17.4478 18.7266 17.5534V20.1784C18.7266 20.513 18.6607 20.8444 18.5326 21.1535C18.4045 21.4627 18.2169 21.7436 17.9802 21.9802C17.7436 22.2168 17.4627 22.4045 17.1536 22.5326C16.8444 22.6606 16.5131 22.7265 16.1784 22.7265H12.8438M5.41406 14.0815L12.8438 22.7265M10.0963 18.977L10.0969 19.0005M10.0963 18.977C10.0963 18.977 10.0963 18.977 10.0963 18.977L10.0969 19.0005M10.0963 18.977C10.6556 18.9633 11.1915 19.1626 11.5611 19.5231M10.0969 19.0005C10.6505 18.9869 11.1802 19.1842 11.5448 19.54M11.5611 19.5231C11.5611 19.5231 11.561 19.5231 11.561 19.523L11.5448 19.54M11.5611 19.5231C11.7078 19.6629 11.8244 19.8312 11.9039 20.0176C11.9834 20.204 12.0241 20.4047 12.0234 20.6074M11.5611 19.5231C11.5611 19.5231 11.5612 19.5232 11.5612 19.5232L11.5448 19.54M11.5448 19.54L12.0234 20.6074M12.0234 20.6074V20.6073H12L12.0234 20.6074ZM12.0234 20.6074V21.9062M12.0234 20.6074V21.9062M12.8438 22.7265C12.6262 22.7265 12.4175 22.6401 12.2637 22.4863M12.8438 22.7265L12.2637 22.4863M12.2637 22.4863C12.1099 22.3324 12.0234 22.1238 12.0234 21.9062M12.2637 22.4863L12.0234 21.9062" fill="white" stroke="white" stroke-width="0.046875"/>
</svg>
